<svg width="128" height="128" viewBox="0 0 128 128" fill="none" xmlns="http://www.w3.org/2000/svg">
<path d="M64.3028 42.615C64.8607 42.6194 65.4187 42.6237 65.9935 42.6282C70.2281 42.7255 73.7978 43.3155 77.6435 45.1692C78.1567 45.3933 78.6699 45.6174 79.1987 45.8482C86.0604 49.1629 93.7763 56.2247 97.5106 62.8485C98.7508 64.7788 100.21 64.7902 102.383 65.315C102.796 65.611 103.209 65.9071 103.635 66.2121C106.237 67.5408 108.813 67.0986 111.671 66.9237C115.866 66.7785 118.708 68.0006 121.837 70.7831C122.898 71.996 123.895 73.207 124.821 74.5245C124.335 74.4317 123.848 74.339 123.347 74.2434C121.319 73.9413 119.392 73.8522 117.342 73.8409C116.665 73.8328 115.989 73.8246 115.292 73.8162C113.281 73.9511 111.757 74.4453 109.862 75.1C106.336 75.4369 103.417 75.1405 100.082 73.9489C98.449 74.1013 97.5003 74.2601 96.2656 75.3654C95.9823 75.7289 95.699 76.0925 95.4071 76.4671C89.1986 83.9555 82.7868 88.9688 73.6161 92.3678C72.9634 92.6171 72.3108 92.8664 71.6383 93.1233C62.6088 94.8666 53.5311 92.7622 45.8613 87.8862C40.9482 84.4948 34.8481 79.2642 32.1916 73.9489C29.7143 73.7907 27.9699 73.9497 25.6471 74.8482C23.3011 75.6938 21.6867 75.6695 19.251 75.3002C13.4459 74.495 9.12433 75.1014 4 77.978C5.34957 74.191 7.81869 71.1487 11.2996 69.0923C13.9476 67.8427 15.9713 67.5753 18.8869 67.4734C23.5379 67.1171 28.7336 66.3191 32.2613 63.0238C32.9138 62.1721 33.5367 61.2969 34.1289 60.4022C40.8385 50.2691 51.9568 42.4797 64.3028 42.615ZM41.3971 60.7102C39.3567 63.114 37.4755 65.628 35.6437 68.1929C42.0974 77.267 49.5448 85.065 60.9586 87.1875C68.6544 88.0331 75.4137 85.8809 81.6708 81.4316C86.2981 77.6815 90.1311 73.4991 93.753 68.7685C88.1457 59.2468 80.2218 52.1502 69.5909 48.8409C58.238 46.6933 48.7665 52.6643 41.3971 60.7102Z" fill="#B580DB"/>
<path d="M86.2728 50.9248C90.1912 54.1916 94.0075 57.3842 96.6649 61.7891C97.887 63.7293 98.1646 64.0899 100.405 64.9549C101.057 65.0736 101.71 65.1923 102.382 65.3146C102.793 65.6077 103.204 65.9008 103.627 66.2028C106.233 67.5419 108.806 67.0987 111.67 66.9234C115.865 66.7781 118.707 68.0003 121.836 70.7828C122.897 71.9956 123.894 73.2067 124.821 74.5241C124.091 74.385 124.091 74.385 123.346 74.2431C121.318 73.941 119.391 73.8518 117.341 73.8406C116.665 73.8324 115.988 73.8243 115.292 73.8159C113.28 73.9508 111.756 74.4449 109.862 75.0997C106.336 75.4366 103.416 75.1402 100.081 73.9485C98.4483 74.101 97.4996 74.2598 96.2649 75.365C95.9815 75.7286 95.6982 76.0922 95.4063 76.4667C93.6318 78.6317 91.7482 80.6159 89.7608 82.5824C89.4748 82.8661 89.1888 83.1498 88.8942 83.4422C88.2134 84.1161 87.5309 84.7884 86.8482 85.4604C86.2786 85.2704 85.709 85.0805 85.1221 84.8848C84.9424 83.0141 84.9424 83.0141 85.1221 80.8556C86.4886 79.6325 86.4886 79.6325 87.9988 78.5533C88.74 77.1074 89.1191 75.9571 89.2934 74.3442C91 72 92.2921 70.8169 93.8697 68.8717C93.3591 68.2562 93.0137 67.2316 92.4928 66.6037C91.5 65.3146 90.8804 64.2183 89.9548 63.0667C89.1926 62.1339 87.276 59.7804 86.4448 58.9087C85.0529 57.3537 85.108 58.1272 85.2076 56.0512C85.4875 54.3142 85.834 52.6279 86.2728 50.9248Z" fill="#935EBD"/>
<path d="M64.4101 2C64.6 2.37989 64.7898 2.75978 64.9855 3.15119C64.7956 3.53108 64.6057 3.91097 64.4101 4.30237C64.1542 7.56636 64.7556 9.48789 66.1361 12.3607C66.326 12.9305 66.5159 13.5003 66.7115 14.0875C67.2277 14.3368 67.2277 14.3368 67.7543 14.5911C69.7366 15.611 70.9041 17.2961 71.8895 19.2678C72.352 24.7126 72.352 24.7126 71.0265 27.2541C69.5941 30.2396 70.0633 33.2609 70.1635 36.5356C66.5561 36.5356 62.9487 36.5356 59.2321 36.5356C58.4705 33.4881 57.7831 30.589 59.4074 27.7331C60.2703 26.5991 61.1767 25.5252 62.1088 24.4481C63.0372 22.5903 62.9139 21.3366 62.6841 19.2678C61.9167 18.0018 61.9167 18.0018 60.9581 16.7496C59.3722 14.5208 58.7003 12.9634 58.8882 10.2157C59.7466 6.94895 62.0083 4.29463 64.4101 2Z" fill="#A870D0"/>
<path d="M102.383 14.087C101.956 14.4906 101.528 14.8943 101.088 15.3101C98.855 17.6459 96.6592 20.109 96.6097 23.4835C96.631 23.9998 96.6523 24.5161 96.6743 25.048C96.6891 25.619 96.7039 26.1899 96.7192 26.7782C96.7549 27.9716 96.7996 29.1649 96.8541 30.3576C96.9364 34.3427 96.4126 36.9476 93.7526 39.9887C92.4199 41.1938 92.4199 41.1938 91.1276 42.0033C90.6997 42.2823 90.2718 42.5612 89.8309 42.8487C88.5746 43.4423 88.5746 43.4423 86.2732 43.4423C84.5382 42.5609 84.5382 42.5609 82.6773 41.4277C82.0573 41.0537 81.4373 40.6798 80.7985 40.2945C80.3268 40.0036 79.8551 39.7128 79.3691 39.4131C79.7557 36.688 79.7557 36.688 81.4547 35.312C82.8499 34.5366 84.0869 33.9405 85.554 33.3694C87.4037 32.7035 87.4037 32.7035 88.1071 31.5437C88.7248 29.7729 88.6939 28.191 88.7184 26.3184C88.9562 22.4356 89.6774 20.1399 92.6019 17.5406C95.8052 15.1341 98.3207 13.9967 102.383 14.087Z" fill="#7745A1"/>
<path d="M27.5889 14.6629C30.7981 14.3419 33.0327 15.1805 35.6436 16.9653C38.8488 20.0094 40.3282 22.546 40.4621 27.0022C40.4784 27.6425 40.4947 28.2829 40.5115 28.9426C40.8857 31.1588 41.5231 32.0986 43.123 33.6575C44.3979 34.2724 44.3979 34.2724 45.748 34.5569C47.4539 35.0537 48.1889 35.2755 49.4877 36.5355C50.0271 37.6867 50.0271 37.6867 50.0271 39.4134C49.5836 39.6494 49.1401 39.8853 48.6832 40.1284C48.1061 40.4386 47.5291 40.7487 46.9347 41.0683C46.3606 41.3754 45.7866 41.6826 45.1952 41.9991C43.6676 42.7991 43.6676 42.7991 42.5477 44.0182C41.9781 44.0182 41.4085 44.0182 40.8217 44.0182C40.8217 43.6383 40.8217 43.2584 40.8217 42.867C40.4301 42.7483 40.0385 42.6296 39.635 42.5073C37.0167 41.2811 34.5585 39.615 33.2951 36.9482C32.7463 35.3231 32.629 34.0976 32.6298 32.3894C32.6206 31.8248 32.6113 31.2601 32.6017 30.6784C32.5921 29.5077 32.589 28.337 32.5927 27.1664C32.4866 21.9229 30.7099 18.7546 27.5889 14.6629Z" fill="#76459F"/>
<path d="M85.123 93.5186C85.6926 93.7085 86.2621 93.8984 86.849 94.0941C87.0032 94.4384 87.1575 94.7827 87.3164 95.1374C87.966 96.5681 87.966 96.5681 89.7257 97.5477C91.4884 98.7234 91.8788 99.1049 92.6024 101.001C92.7493 102.317 92.7493 102.317 92.7597 103.749C92.7716 104.271 92.7834 104.794 92.7957 105.332C92.8106 106.421 92.8211 107.511 92.8271 108.601C92.9142 112.019 93.2771 113.899 95.4791 116.542C95.8113 116.993 96.1436 117.445 96.4859 117.909C96.7232 118.218 96.9606 118.527 97.2051 118.845C93.6959 119.087 91.9484 118.896 89.1503 116.542C86.6612 113.914 85.7845 111.35 85.4466 107.8C85.2952 105.71 85.2952 105.71 84.4398 104.563C83.3175 103.794 83.3175 103.794 81.6709 103.052C79.8975 102.128 79.1814 101.573 78.2189 99.8501C78.0105 98.8942 77.8167 97.935 77.6436 96.9721C78.2365 96.7428 78.2365 96.7428 78.8414 96.5089C79.3598 96.3056 79.8783 96.1023 80.4124 95.8929C80.9263 95.6925 81.4403 95.4922 81.9698 95.2858C83.4989 94.6765 83.4989 94.6765 85.123 93.5186Z" fill="#73429D"/>
<path d="M43.1227 94.0947C45.3379 94.4421 47.0701 95.1122 49.0559 96.1453C49.5639 96.4072 50.072 96.6691 50.5954 96.939C51.1683 97.2406 51.1683 97.2406 51.7528 97.5483C51.0338 100.425 50.177 101.65 47.7254 103.304C47.2033 103.613 46.6812 103.922 46.1432 104.24C44.7789 104.917 44.7789 104.917 44.2734 106.182C44.1069 107.284 43.9528 108.387 43.8059 109.492C43.3279 112.368 42.8822 114.373 40.8214 116.543C38.2088 118.319 35.9732 119.166 32.7666 118.845C33.1304 118.314 33.1304 118.314 33.5015 117.773C33.8167 117.308 34.1319 116.842 34.4567 116.363C34.7704 115.902 35.0841 115.441 35.4073 114.967C36.8866 112.593 36.892 110.655 36.794 107.909C36.6041 107.339 36.4143 106.769 36.2186 106.182C35.9987 103.85 36.0454 102.493 37.1176 100.39C38.5231 98.6957 39.9759 97.3593 41.6911 95.9924C42.6244 95.2744 42.6244 95.2744 43.1227 94.0947Z" fill="#7A49A4"/>
<path d="M60.3835 99.2744C63.4213 99.2744 66.4591 99.2744 69.589 99.2744C70.584 101.265 70.4488 103.429 70.1643 105.606C69.4081 106.764 68.6412 107.916 67.8629 109.059C67.5529 110.734 67.667 111.928 67.8629 113.664C68.1477 114.044 68.4325 114.424 68.7259 114.815C69.8313 116.29 69.8646 117.515 69.7935 119.328C69.3445 122.058 68.2133 124.427 66.056 126.172C65.703 126.413 65.35 126.654 64.9862 126.903C65.0196 126.444 65.053 125.986 65.0874 125.513C65.3941 121.497 65.3941 121.497 63.7277 118.017C63.1937 117.53 62.6597 117.044 62.1095 116.542C58.6993 113.131 58.6993 113.131 58.5137 110.391C58.5315 107.913 59.4103 106.151 60.3835 103.879C60.3835 102.36 60.3835 100.84 60.3835 99.2744Z" fill="#8552B2"/>
<path d="M18.4906 40.2054C20.9967 41.6062 22.3301 43.7893 23.8238 46.1817C24.6903 47.6124 24.6903 47.6124 26.4375 48.6235C27.7348 48.7908 29.0121 48.8401 30.3188 48.8888C32.0432 49.3014 32.7696 50.1889 33.9169 51.5014C29.7754 56.8725 29.7754 56.8725 27.4916 57.7205C24.6742 57.8187 22.7352 56.7737 20.6841 54.955C19.5671 53.2458 18.6846 51.5989 17.8524 49.7432C16.322 46.4176 14.6317 44.1868 11.1281 42.8855C9.71764 42.455 8.30867 42.0648 6.87598 41.7163C7.45132 40.5652 7.45132 40.5652 8.56604 39.9176C11.8786 38.9708 15.2667 38.8751 18.4906 40.2054Z" fill="#74429C"/>
<path d="M115.328 38.1546C115.773 38.1465 116.218 38.1383 116.676 38.1299C117.917 38.2625 117.917 38.2625 119.643 39.4137C119.302 39.6096 118.962 39.8055 118.611 40.0073C113.752 42.9889 111.944 46.1403 110.282 51.4764C109.338 54.1174 108.026 55.2849 105.583 56.5736C103.666 57.2129 102.626 57.5234 100.657 57.2571C99.389 56.1846 99.389 56.1846 98.2114 54.7749C97.6195 54.0837 97.6195 54.0837 97.0158 53.3786C96.0539 52.0768 96.0539 52.0768 95.4785 50.35C97.2207 49.188 98.0364 48.9913 100.045 48.6952C102.474 48.236 103.797 47.8523 105.259 45.7452C105.508 45.1992 105.758 44.6531 106.014 44.0904C108.036 40.346 111.043 38.1903 115.328 38.1546Z" fill="#74429E"/>
<path d="M32.1907 83.7339C33.1706 84.8537 33.1706 84.8537 34.0606 86.1083C34.51 86.7338 34.51 86.7338 34.9685 87.3719C35.3023 87.8504 35.3023 87.8504 35.6428 88.3387C34.5879 89.5699 33.7761 90.1302 32.2806 90.8187C29.7989 92.1492 28.2797 94.0944 26.5205 96.2272C24.7341 98.2987 23.3553 99.2562 20.6839 99.8505C17.3456 100.066 14.6871 99.6165 11.4785 98.6994C13.3733 96.7384 14.7657 95.4208 17.4836 94.7781C19.9186 93.9661 20.5001 93.3804 21.8346 91.2167C22.228 90.3456 22.6109 89.4698 22.9853 88.5905C24.2015 85.7515 25.2997 84.2556 28.1634 82.9425C30.1548 82.5274 30.5296 82.6647 32.1907 83.7339Z" fill="#77459F"/>
<path d="M98.3556 82.583C102.953 83.7919 102.953 83.7919 104.864 85.4969C105.996 87.4673 106.758 89.4688 107.489 91.6171C108.431 93.5477 109.654 94.3452 111.609 95.1561C112.388 95.4084 113.167 95.6602 113.946 95.9116C115.178 96.4583 115.876 97.1245 116.767 98.124C113.122 99.8119 110.349 100.225 106.41 99.2752C103.912 98.099 102.642 96.6005 101.053 94.4186C99.0397 91.6824 96.8175 90.298 93.7529 88.9145C94.5375 87.1922 95.4497 85.8695 96.7015 84.4537C97.0116 84.1005 97.3216 83.7473 97.641 83.3834C97.9947 82.9872 97.9947 82.9872 98.3556 82.583Z" fill="#73429C"/>
<path d="M19.1027 67.5809C19.7227 67.5861 20.3427 67.5913 20.9815 67.5966C21.4532 67.6033 21.9249 67.61 22.4109 67.6169C22.6957 68.4716 22.6957 68.4716 22.9862 69.3437C24.2201 70.1689 24.2201 70.1689 25.7191 70.8546C26.2145 71.0994 26.7099 71.3443 27.2203 71.5966C28.6925 72.2022 30.049 72.5434 31.6163 72.7972C31.6163 72.9872 31.6163 73.1771 31.6163 73.3728C21.1099 76.2006 21.1099 76.2006 17.8081 75.0996C12.5004 74.5716 8.64019 75.3727 4 77.9775C5.34957 74.1905 7.81869 71.1483 11.2996 69.0918C14.0452 67.7962 16.0633 67.5478 19.1027 67.5809Z" fill="#7E4BA7"/>
<path d="M64.4105 2C64.6004 2.37989 64.7902 2.75978 64.9859 3.15119C64.796 3.53108 64.6061 3.91097 64.4105 4.30237C64.1546 7.56636 64.756 9.48789 66.1365 12.3607C66.3264 12.9305 66.5163 13.5003 66.7119 14.0875C67.2281 14.3368 67.2281 14.3368 67.7547 14.5911C69.737 15.611 70.9045 17.2961 71.8899 19.2678C71.9598 20.3213 71.9909 21.3777 71.9978 22.4335C72.006 22.9975 72.0141 23.5614 72.0225 24.1423C71.8899 25.5993 71.8899 25.5993 70.7393 26.7505C70.4255 26.1773 70.4255 26.1773 70.1055 25.5926C68.3293 22.4716 66.763 20.2088 63.8352 18.1166C63.8352 19.4462 63.8352 20.7758 63.8352 22.1458C63.6453 22.1458 63.4555 22.1458 63.2598 22.1458C63.1293 21.6709 62.9988 21.196 62.8643 20.7068C62.2208 18.9901 61.6317 17.9583 60.5989 16.4977C59.2508 14.3801 58.7696 12.7478 58.9088 10.2359C59.7079 6.95484 62.0133 4.29023 64.4105 2Z" fill="#7A49A6"/>
<path d="M120.218 69.3446C121.994 70.9238 123.455 72.5832 124.821 74.5249C124.091 74.3858 124.091 74.3858 123.346 74.2439C121.318 73.9418 119.391 73.8526 117.341 73.8414C116.665 73.8332 115.988 73.8251 115.292 73.8167C113.28 73.9516 111.757 74.4457 109.862 75.1005C106.444 75.4271 103.27 75.3287 100.081 73.9493C101.853 71.8356 103.101 71.32 105.834 71.0714C105.834 70.6915 105.834 70.3116 105.834 69.9202C106.784 69.5403 107.733 69.1604 108.711 68.769C108.142 68.3891 107.572 68.0092 106.985 67.6178C112.018 66.7787 115.833 66.4357 120.218 69.3446Z" fill="#724199"/>
<path d="M60.383 99.2744C63.4207 99.2744 66.4585 99.2744 69.5884 99.2744C70.5928 101.284 70.4984 103.413 70.1637 105.606C69.5283 106.765 68.8054 107.711 67.9658 108.729C67.069 109.926 66.8457 111.039 66.7117 112.513C66.332 111.943 65.9522 111.373 65.561 110.786C64.0865 110.366 64.0865 110.366 62.6843 110.211C62.6843 109.831 62.3358 109.955 62.3358 109.564C61.9561 109.564 61.9249 109.059 61.5336 109.059C61.5336 108.49 61.1679 108.593 61.1679 108.006C60.5983 108.006 60.3945 107.333 59.8076 107.333C59.8491 106.896 59.8907 106.459 59.9335 106.008C59.9869 105.436 60.0403 104.864 60.0953 104.275C60.1487 103.707 60.2021 103.14 60.2571 102.555C60.4062 100.974 60.4062 100.974 60.383 99.2744Z" fill="#AB75D4"/>
<path d="M39.6711 26.75C39.7623 27.0972 39.8536 27.4445 39.9475 27.8023C40.8143 30.7724 41.463 32.6349 44.2738 34.2327C44.9621 34.4227 45.6503 34.6126 46.3594 34.8083C48.3012 35.3839 48.3012 35.3839 49.4159 36.4991C50.0272 37.6863 50.0272 37.6863 50.0272 39.413C49.0207 39.9652 48.0137 40.5167 47.0067 41.0679C46.1657 41.5286 46.1657 41.5286 45.3076 41.9987C44.0142 42.6963 42.7162 43.3705 41.3971 44.0178C40.9286 42.999 40.4614 41.9796 39.9947 40.96C39.7344 40.3923 39.4741 39.8247 39.2059 39.2399C38.0685 36.6619 37.8518 34.706 37.8372 31.8944C37.8291 31.1754 37.8209 30.4564 37.8125 29.7157C38.0292 26.75 38.0292 26.75 39.6711 26.75Z" fill="#AB73D3"/>
<path d="M88.5746 31.3545C88.9543 31.5444 89.334 31.7344 89.7253 31.9301C89.9376 39.7773 89.9376 39.7773 88.5746 43.4419C85.8955 43.4419 84.9351 42.8022 82.6773 41.4274C82.0573 41.0534 81.4373 40.6795 80.7985 40.2942C80.091 39.8579 80.091 39.8579 79.3691 39.4128C79.7557 36.6877 79.7557 36.6877 81.4547 35.3117C82.8306 34.547 84.1138 33.9 85.554 33.2971C87.4344 32.6393 87.4344 32.6393 88.5746 31.3545Z" fill="#9C67C5"/>
<path d="M85.123 93.5186C86.849 94.0941 86.849 94.0941 87.8199 95.8569C88.0691 96.4149 88.3183 96.9728 88.575 97.5477C88.1953 97.5477 87.8156 97.5477 87.4243 97.5477C87.2345 100.587 87.0446 103.626 86.849 106.757C86.4693 106.757 86.0895 106.757 85.6983 106.757C85.366 106.318 85.0338 105.879 84.6915 105.426C83.241 103.693 81.9506 103.134 79.9449 102.152C78.363 100.515 78.0395 99.1744 77.6436 96.9721C78.2365 96.7428 78.2365 96.7428 78.8414 96.5089C79.3598 96.3056 79.8783 96.1023 80.4124 95.8929C80.9263 95.6925 81.4403 95.4922 81.9698 95.2858C83.4989 94.6765 83.4989 94.6765 85.123 93.5186Z" fill="#9D65C5"/>
<path d="M86.2727 50.9248C88.5226 52.8006 90.7082 54.7189 92.8172 56.7527C93.2014 57.1222 93.5856 57.4917 93.9814 57.8724C94.9549 59.0459 95.3191 59.7765 95.4782 61.2855C94.759 62.1489 94.759 62.1489 93.7521 63.0123C93.1664 63.7718 92.5885 64.5376 92.0261 65.3146C91.1797 62.5071 89.1773 59.3589 85.4995 57.8724C85.3964 55.2187 85.4969 53.4544 86.2727 50.9248Z" fill="#A16BCB"/>
<path d="M43.1221 94.0947C45.3373 94.4421 47.0695 95.1122 49.0553 96.1453C49.5633 96.4072 50.0714 96.6691 50.5948 96.939C51.1677 97.2406 51.1677 97.2406 51.7522 97.5483C50.9067 100.932 49.5752 102.19 46.6416 103.956C45.668 104.52 44.6835 105.065 43.6975 105.607C41.7465 102.679 41.5896 99.2789 41.9714 95.8215C42.3512 95.2517 42.7309 94.6818 43.1221 94.0947Z" fill="#AC74D5"/>
<path d="M55.7803 56.6807C61.1496 53.1184 66.0651 52.8086 71.8896 55.5293C74.9997 57.5637 77.0073 60.0859 78.2188 63.5879C78.8926 68.2722 78.4254 72.7518 75.917 76.8262C73.3679 79.8056 70.179 81.7149 66.2559 82.209C61.4953 82.4384 58.2917 81.3981 54.7559 78.2021C51.985 75.2398 50.569 71.9928 50.3506 67.9404C50.5163 63.5703 52.6607 59.666 55.7803 56.6807ZM67.2881 64.165C65.212 63.5986 63.902 63.319 61.8936 64.165C60.0708 65.6651 60.0683 67.045 60.3838 69.3447C60.9231 70.7476 60.9229 70.7482 62.1094 71.6475C64.6936 71.9758 65.9876 72.1362 68.1504 70.6758C69.0133 69.3449 69.014 69.3448 69.2656 67.9062C68.9538 66.1236 68.6373 65.3843 67.2881 64.165Z" fill="#BE8BE3"/>
<path d="M88.5751 76.251C88.7649 76.6309 88.9548 77.0108 89.1504 77.4022C86.4176 80.2082 86.4176 80.2082 85.123 80.8557C85.3237 78.9819 85.7107 78.5426 87.1727 77.2583C87.6355 76.9259 88.0983 76.5935 88.5751 76.251Z" fill="#A56BD2"/>
<path d="M43.123 94.0947C45.4978 94.4441 47.3415 95.2678 49.4518 96.3971C49.2619 96.777 49.0721 97.1569 48.8764 97.5483C48.3543 97.2634 47.8322 96.9784 47.2943 96.6849C45.4194 95.6607 45.4194 95.6607 43.123 95.8215C43.123 95.2517 43.123 94.6818 43.123 94.0947Z" fill="#B382D8"/>
<path d="M112.739 38.2618C113.566 38.2306 114.393 38.2084 115.22 38.1899C115.681 38.1765 116.142 38.1632 116.616 38.1494C117.917 38.2618 117.917 38.2618 119.643 39.413C118.694 39.7929 117.745 40.1728 116.767 40.5642C116.577 40.1843 116.387 39.8044 116.191 39.413C114.448 39.0344 114.448 39.0344 112.739 38.8374C112.739 38.6475 112.739 38.4575 112.739 38.2618Z" fill="#5D357B"/>
<path d="M6.30136 73.9492C6.49122 74.3291 6.68108 74.709 6.8767 75.1004C7.25642 75.2904 7.63615 75.4803 8.02738 75.676C6.69834 76.4358 5.36931 77.1956 4 77.9784C4.61792 76.3004 5.02301 75.2281 6.30136 73.9492Z" fill="#7643A1"/>
<path d="M102.383 14.0869C101.624 14.8467 100.864 15.6065 100.082 16.3893C98.6578 15.8194 98.6578 15.8194 97.2051 15.2381C99.1815 13.9199 100.073 13.9842 102.383 14.0869Z" fill="#5A3276"/>
<path d="M102.382 71.6465C102.762 71.8364 103.142 72.0264 103.533 72.2221C103.343 72.602 103.153 72.9819 102.958 73.3733C103.717 73.7532 104.477 74.133 105.259 74.5244C103.55 74.3345 101.842 74.1446 100.081 73.9489C100.841 73.1891 101.6 72.4293 102.382 71.6465Z" fill="#7A4AA0"/>
</svg>
