<svg width="64" height="64" viewBox="0 0 64 64" fill="none" xmlns="http://www.w3.org/2000/svg">
<g clip-path="url(#clip0_636_2526)">
<rect width="64" height="64" fill="white"/>
<path d="M30.175 11.2326C29.7211 11.3887 29.1113 11.6725 28.8134 11.857C28.317 12.1834 26.3598 14.0991 26.2747 14.3404C26.2463 14.4539 28.6149 15.5749 30.175 16.1568C30.8416 16.4122 31.3805 16.5257 31.9195 16.5115C32.7846 16.4831 34.9546 16.1568 35.7914 15.9297L36.3162 15.7736V14.6809C36.3162 14.0849 36.3587 13.3612 36.4013 13.0774C36.4864 12.5807 36.458 12.5382 35.8765 12.1976C33.9902 11.0907 31.7493 10.7076 30.175 11.2326Z" fill="black"/>
<path d="M37.5219 14.6957V16.0012L38.1034 16.0438C38.614 16.0864 40.8265 15.7032 41.6349 15.4336C41.8477 15.3627 41.8051 15.4336 41.4931 15.7174C40.9116 16.2141 39.5359 16.8527 38.5714 17.0655C37.8056 17.2358 37.763 17.2642 37.5928 17.8318C37.3091 18.7826 36.3731 20.7125 35.5221 22.0606C35.0824 22.7417 34.7137 23.3094 34.6853 23.3094C34.6428 23.3094 35.437 20.6699 36.1887 18.3569C36.5007 17.3919 36.7276 16.5831 36.6993 16.5547C36.6709 16.5263 36.3447 16.6256 35.9759 16.7817C35.1392 17.1649 33.423 17.4913 32.3309 17.4913H31.4941L31.4658 18.442C31.4516 18.9813 31.4516 19.5489 31.4658 19.7192C31.4941 20.3861 31.253 20.003 30.8417 18.74L30.4162 17.4345L29.2958 16.9946C28.6717 16.7533 27.6931 16.3134 27.1116 16.0154C25.7217 15.3059 24.119 14.8944 23.2113 15.0079C22.4029 15.1072 21.4952 15.533 21.3675 15.8735C21.3108 16.0296 21.5519 16.5405 22.0625 17.321C22.5021 17.9879 23.2964 19.4212 23.8495 20.5138L24.8565 22.4863L25.7926 22.912C26.3174 23.1533 27.3527 23.508 28.0902 23.7067C29.3525 24.0473 29.6504 24.0757 32.5862 24.0898H35.7348L36.1887 23.6216C36.7135 23.0823 37.1106 22.9546 37.919 23.0681C38.9118 23.1958 39.3515 22.8695 40.3159 21.2801C41.8335 18.7684 43.266 15.6607 43.266 14.8802C43.266 14.7099 43.1383 14.4403 42.9681 14.2842C42.7129 14.0571 42.3725 14.0004 40.5854 13.9294C39.0253 13.8727 38.4012 13.8017 38.0608 13.6172C37.8056 13.4895 37.5928 13.376 37.5644 13.376C37.5361 13.376 37.5219 13.972 37.5219 14.6957ZM27.3669 19.9036C27.6647 20.4571 28.4448 22.8695 28.3597 22.9546C28.3313 22.983 28.0477 22.5856 27.7498 22.089C27.2109 21.195 26.6719 19.8611 26.4734 18.9813L26.3883 18.5555L26.7428 18.9813C26.9556 19.2083 27.2251 19.634 27.3669 19.9036Z" fill="black"/>
<path d="M23.9498 23.2237C23.3683 23.6494 23.2548 24.4866 23.6945 25.0542C24.12 25.5793 25.7936 26.374 27.453 26.8139C28.7862 27.1686 29.0698 27.1828 32.0624 27.197C33.8211 27.2112 35.4947 27.1544 35.7925 27.0977L36.3315 26.9842L36.0478 26.5301C35.906 26.2746 35.7358 25.8347 35.6791 25.5367L35.5798 25.0117L34.8423 25.111C33.5374 25.3097 30.091 25.2245 28.7294 24.9549C27.2118 24.6569 25.4957 24.0183 24.7298 23.4649C24.2902 23.1527 24.12 23.096 23.9498 23.2237Z" fill="black"/>
<path d="M39.5077 23.6208C39.3517 23.7059 39.2098 23.7911 39.1815 23.8052C39.1673 23.8194 39.2382 24.0181 39.3659 24.2451C39.607 24.7276 39.6495 25.7493 39.4226 26.1751C39.2098 26.5724 39.3233 26.615 39.919 26.3737C40.4721 26.1467 40.9969 25.423 40.9969 24.8979C40.9969 24.458 40.6281 23.7769 40.3019 23.5924C39.9615 23.4221 39.8623 23.4221 39.5077 23.6208Z" fill="black"/>
<path d="M36.8417 24.1314C36.6857 24.3017 36.6006 24.6423 36.6006 25.0538C36.6006 25.5647 36.6999 25.8201 37.0686 26.3026C37.6359 27.0547 37.7778 27.0973 38.2174 26.6715C38.9266 25.962 38.955 24.5713 38.26 24.0889C37.8487 23.7909 37.1254 23.8192 36.8417 24.1314Z" fill="black"/>
<path d="M21.7793 27.3817C16.645 31.3266 14.4608 34.1221 13.3829 38.1381C13.0425 39.4152 13 39.7984 13 42.0405C13 44.3535 13.0284 44.5948 13.3829 45.659C14.3899 48.6816 16.5883 50.6967 20.1482 51.8887C25.2683 53.5774 34.9978 53.4922 41.2099 51.69C47.422 49.8878 50.287 46.9078 50.2586 42.2533C50.2303 38.0104 47.6206 33.5403 42.2453 28.5311L40.6142 26.9985L40.0327 27.2823C39.7065 27.4384 39.3803 27.5661 39.2952 27.5661C39.2101 27.5661 39.4654 27.9635 39.8342 28.4459C42.1318 31.3976 43.7061 34.8742 44.4153 38.507C44.7415 40.2383 44.7415 40.2808 44.4436 40.2808C44.3018 40.2808 44.0607 40.3234 43.8905 40.3802C43.621 40.4795 43.5785 40.3802 43.2806 38.8902C42.5289 35.0729 40.7986 31.2415 38.6428 28.602C38.274 28.1479 38.0187 27.9067 38.0755 28.0628C38.2457 28.5169 38.6995 30.39 38.8697 31.3976C38.9548 31.9084 39.0683 33.6255 39.1108 35.229C39.1676 37.4995 39.2385 38.1948 39.3945 38.3793C39.5079 38.507 39.5789 38.805 39.5505 39.0463C39.5221 39.3726 39.6214 39.5855 39.9618 39.9403C40.7135 40.7349 41.2383 42.5087 40.8411 42.977C40.5433 43.346 39.664 43.7149 38.8839 43.8285L38.1606 43.9278L37.9336 43.3744C37.5932 42.5655 37.5223 41.1039 37.7918 40.3376C37.9478 39.8977 37.962 39.6565 37.8485 39.5287C37.7776 39.4294 37.7351 39.103 37.7776 38.8192C37.9195 37.9252 37.8769 33.5403 37.7209 32.178C37.65 31.4827 37.494 30.461 37.3663 29.9076C37.2529 29.3683 37.1252 28.7439 37.0685 28.5169C37.0259 28.304 36.9408 28.0912 36.8699 28.0486C36.799 28.006 35.8913 28.077 34.8701 28.2189C31.8066 28.602 28.0198 28.2757 25.7788 27.4242C25.3675 27.2681 24.9704 27.1404 24.8853 27.1404C24.7435 27.1404 22.2189 30.7732 20.8715 32.9301C19.198 35.6263 18.4746 37.5563 18.659 38.9044C18.9001 40.6214 19.7085 42.6223 20.8857 44.3535C21.4672 45.2191 23.5805 47.4329 24.5449 48.1991C24.9137 48.483 24.7151 48.412 23.7223 47.9153C20.7439 46.3828 18.5172 43.9846 17.5102 41.2316C17.1414 40.2241 17.0989 39.9545 17.0989 38.28C17.0989 36.5345 17.1272 36.3784 17.5527 35.3C18.4037 33.214 19.9071 31.1421 22.8146 28.1196L24.1336 26.7431L23.7365 26.4593L23.3394 26.1755L21.7793 27.3817ZM28.4452 31.355C28.1616 32.3483 27.6794 33.7532 27.3815 34.4627C26.8142 35.7824 25.5377 38.1097 25.169 38.4928C24.9846 38.6773 24.9704 38.6347 25.0555 38.209C25.5236 35.6122 26.1902 33.8809 27.6794 31.3976C28.3318 30.3191 28.8849 29.4535 28.9133 29.4818C28.9416 29.5102 28.7289 30.3475 28.4452 31.355ZM44.8975 40.6214C45.3655 40.8059 45.5924 41.3877 45.4081 41.9269C45.2804 42.2817 45.323 42.452 45.6917 43.1047C46.2023 44.0129 46.486 44.9779 46.6136 46.2834C46.6845 47.1349 46.6703 47.2484 46.3867 47.5038C46.1314 47.7309 46.0605 47.745 45.9612 47.5748C45.8761 47.4612 45.8194 47.22 45.8194 47.0497C45.8194 46.8794 45.7626 46.695 45.6775 46.6524C45.5924 46.5956 45.5357 46.8227 45.5357 47.2484C45.5357 48.0572 45.2804 48.483 44.6847 48.6816C44.316 48.8093 44.2592 48.8093 44.2592 48.5965C44.2592 48.3978 44.2167 48.412 44.0039 48.6674C43.777 48.9654 43.0111 49.3486 42.8835 49.2209C42.8551 49.1925 42.8977 48.114 42.9828 46.8227C43.1246 44.7508 43.309 43.5305 43.621 42.7074C43.6777 42.5797 43.6636 42.4662 43.5785 42.4662C43.3657 42.4662 43.0821 41.6715 43.1955 41.3309C43.2948 41.0329 44.0323 40.4795 44.3585 40.4795C44.4436 40.4795 44.6847 40.5363 44.8975 40.6214Z" fill="black"/>
</g>
<defs>
<clipPath id="clip0_636_2526">
<rect width="64" height="64" fill="white"/>
</clipPath>
</defs>
</svg>
