<svg width="1024" height="1024" viewBox="0 0 1024 1024" fill="none" xmlns="http://www.w3.org/2000/svg">
<path d="M431.865 179.451C419.975 186.791 401.332 198.388 390.396 205.214C379.533 211.966 369.184 218.425 367.422 219.453C364.339 221.288 364.046 221.875 357.807 236.408C354.284 244.702 346.797 261.657 341.219 274.208L331.017 296.961L328.668 324.705C327.42 339.972 326.172 352.597 325.952 352.817C325.732 353.037 317.365 348.633 307.309 342.982C278.17 326.614 255.197 314.21 253.949 314.21C253.215 314.21 268.041 356.413 276.262 377.699C277.803 381.736 282.06 392.819 285.73 402.287C289.327 411.755 294.538 425.114 297.18 432.013L302.098 444.491L301.217 450.363C298.428 469.886 283.014 539.688 278.904 551.652C276.555 558.478 247.49 648.39 241.838 666.152C239.416 673.786 235.526 686.263 233.104 693.75L228.773 707.402L232.37 721.641C235.453 733.972 244.994 770.23 245.802 772.726C246.169 773.753 244.701 772.799 268.555 787.259C279.051 793.644 292.923 802.012 299.382 805.975C322.209 819.847 333.512 826.38 333.512 825.719C333.512 824.912 310.318 767.515 304.3 753.569L302.171 748.505L308.263 733.385C322.356 698.374 330.136 678.189 336.008 661.235C342.687 641.858 352.596 609.342 356.192 594.956C358.247 586.809 362.871 563.836 363.972 556.569C365.587 546.073 364.559 565.817 362.431 586.516C359.935 611.03 357.88 622.481 351.421 648.537C345.77 671.143 342.76 681.125 329.402 721.274L316.41 760.175L319.493 767.148C321.255 770.964 326.906 783.148 332.118 794.231L341.659 814.416L345.476 816.691C365.734 828.802 459.83 885.905 468.931 891.63C490.217 904.915 488.602 903.668 490.951 908.879C492.052 911.448 496.822 921.283 501.446 930.752L509.814 948L517.814 931.485C532.274 901.539 530.218 904.622 538.659 899.337C562.073 884.658 578.367 874.602 617.929 850.601C642.15 835.848 665.417 821.682 669.674 819.113L677.308 814.416L685.235 797.534C689.565 788.213 695.29 775.955 697.859 770.304L702.703 759.881L694.336 735.073C677.748 685.749 671.583 664.464 664.977 634.224C661.527 618.444 657.784 591.286 656.463 572.57C656.096 566.698 655.509 559.799 655.288 557.156C654.628 549.89 655.435 552.092 657.197 562.294C662.702 593.562 675.913 639.656 691.327 681.199C694.703 690.227 707.034 721.274 714.374 739.11L718.117 748.211L712.172 763.698C708.869 772.212 702.043 789.534 697.052 802.158C692.061 814.856 688.097 825.352 688.244 825.572C688.464 825.719 694.189 822.416 701.015 818.233C707.768 813.976 723.915 804.067 736.833 796.066C749.751 788.066 763.183 779.772 766.706 777.57L773.018 773.607L774.56 768.689C775.367 765.973 778.01 756.578 780.505 747.771C782.927 738.963 786.377 726.559 788.212 720.246C790.047 713.934 791.515 708.136 791.515 707.475C791.515 706.007 786.157 688.685 768.982 634.958C757.311 598.259 750.339 576.46 743.953 556.055C738.375 538.367 727.365 492.933 721.346 462.253L717.97 445.592L719.658 440.601C720.539 437.885 723.842 428.71 726.925 420.269C742.558 378.139 764.578 315.017 763.991 314.356C763.403 313.696 728.246 333.22 697.932 351.129C695.51 352.523 693.455 353.624 693.382 353.551C693.308 353.477 692.354 340.926 691.327 325.586L689.345 297.695L682.739 281.915C679.143 273.254 674.959 263.492 673.491 260.262C672.023 257.033 667.839 247.051 664.169 238.023L657.417 221.655L651.618 217.912C634.443 206.828 602.735 187.084 582.698 174.974C577.046 171.524 571.541 168.074 570.44 167.34C568.605 166.019 566.183 165.946 510.988 166.019H453.518L431.865 179.451ZM511.942 238.757C527.209 263.785 539.834 283.382 540.714 283.382C541.228 283.382 547.1 279.713 573.083 262.831C583.505 256.152 584.973 255.418 586.294 256.225C589.157 258.06 624.388 287.346 637.746 299.09L644.352 304.888L645.306 310.099C646.848 318.834 651.325 350.395 651.105 350.688C650.958 350.762 649.563 347.018 648.022 342.248C644.866 332.486 645.673 333.513 626.003 315.751C609.268 300.778 585.781 281.915 583.799 281.915C581.303 281.915 557.376 296.814 542.109 307.824L535.503 312.668L523.833 298.282C517.447 290.429 511.722 283.236 511.062 282.428C509.887 280.96 509.594 281.254 500.859 292.264C495.942 298.502 490.437 305.622 488.675 308.118L485.446 312.595L477.372 307.017C465.848 298.943 447.793 287.493 441.701 284.337L436.416 281.621L433.627 283.603C422.544 291.309 397.295 312.521 383.423 325.806L374.982 333.88L372.046 342.321C370.505 347.018 369.037 350.762 368.963 350.615C368.67 350.321 372.78 321.623 374.468 311.861L375.716 304.741L389.295 292.851C405.002 279.052 422.911 263.932 429.37 258.941L433.847 255.491L455.646 269.07C467.61 276.556 477.812 282.869 478.326 283.089C478.84 283.236 481.335 280.08 484.051 275.896C491.171 264.886 504.382 243.968 507.025 239.564C508.272 237.435 509.447 235.674 509.667 235.674C509.887 235.674 510.915 237.068 511.942 238.757ZM440.086 312.815C455.573 320.595 478.987 334.394 496.969 346.284C503.942 350.835 509.887 354.578 510.254 354.578C510.621 354.578 512.236 353.624 513.777 352.523C518.768 349 542.769 333.733 550.036 329.55C560.678 323.311 584.166 310.54 584.826 310.54C586.368 310.54 612.644 331.238 629.232 345.55L631.728 347.679L635.985 373.001L640.315 398.25L641.196 422.985L642.077 447.72L639.728 454.693C636.572 463.941 629.966 479.722 617.488 507.906C611.837 520.604 607.36 531.027 607.506 531.174C607.727 531.467 620.645 520.458 626.59 514.806C628.938 512.531 630.994 510.916 631.214 511.136C631.581 511.503 627.691 530.807 621.892 556.789L618.81 570.735L589.01 600.828C572.642 617.343 554.88 635.325 549.669 640.61L540.201 650.372H510.181H480.161L440.746 610.663L401.405 570.955L399.79 563.836C397.882 555.909 388.561 511.503 388.561 510.696C388.561 510.402 392.451 513.632 397.221 517.962C407.791 527.577 412.782 531.761 412.782 531.1C412.782 530.807 408.672 521.485 403.681 510.329C384.23 466.877 379.019 453.739 378.065 445.592C377.184 438.032 378.578 404.856 380.046 396.415C380.634 393.406 382.762 381.369 384.817 369.698C387.46 354.505 388.928 348.046 389.808 347.018C393.331 343.055 433.774 310.686 435.388 310.54C435.462 310.54 437.59 311.567 440.086 312.815ZM285.95 348.78C317.144 366.322 330.429 374.983 348.339 389.222L354.651 394.213L354.944 409.847C355.091 418.361 355.165 425.481 355.091 425.627C355.018 425.774 353.403 423.132 351.495 419.829C343.714 406.691 338.723 401.92 311.199 381.736L306.869 378.579L307.383 380.708C308.337 384.671 313.475 394.58 320.08 405.223C325.659 414.251 327.2 417.334 329.842 425.407C333.292 436.05 337.769 447.647 340.412 452.785C343.054 457.923 348.852 465.85 354.284 471.721L359.128 476.933L361.257 491.392C362.358 499.319 363.091 505.705 362.798 505.631C362.137 505.338 350.614 491.245 340.485 478.18C336.448 473.043 331.677 467.024 329.916 464.822C327.714 462.106 325.292 457.335 322.135 449.702C319.64 443.61 315.163 432.967 312.3 426.141C297.914 392.158 279.491 345.771 280.299 345.771C280.446 345.771 282.941 347.165 285.95 348.78ZM734.044 358.395C731.842 364.56 728.539 373.442 726.704 378.066C724.869 382.69 720.906 392.745 717.897 400.452C714.887 408.085 709.823 420.49 706.74 427.976C703.658 435.463 699.327 445.812 697.125 451.097C693.235 460.418 692.868 461.005 679.73 477.593C660.646 501.814 656.903 506.439 656.683 506.292C656.61 506.145 657.343 499.686 658.371 491.906L660.206 477.667L665.344 472.088C676.354 460.345 680.537 452.711 687.95 430.619C692.795 416.233 693.455 414.838 699.841 404.709C706.447 394.14 713.346 380.928 712.832 379.534C712.612 378.873 699.107 388.488 688.684 396.709C677.601 405.516 674.005 409.627 667.766 420.563L664.536 426.141L664.61 415.132C664.683 409.04 664.903 401.773 665.197 398.837L665.637 393.553L677.381 384.598C691.4 373.955 703.144 366.102 719.952 356.267C737.421 346.064 737.567 345.991 737.788 346.578C737.934 346.872 736.246 352.156 734.044 358.395ZM329.182 509.962C328.228 528.531 326.393 545.633 323.677 561.193C317.805 595.03 318.172 593.562 314.796 599.213C303.125 619.178 298.428 626.811 289.62 640.463C279.124 656.611 261.289 683.107 252.481 695.511C245.215 705.64 244.481 706.888 243.893 709.824L243.38 712.393L243.306 709.824C243.306 708.429 243.893 706.227 244.627 704.98C245.435 703.659 248.591 698.227 251.747 692.869C254.83 687.438 259.894 678.703 262.903 673.492C275.161 652.353 288.519 627.765 296.96 611.177L305.841 593.562L311.933 571.983C319.64 544.826 327.053 511.503 328.815 496.456C329.842 488.162 329.989 493.888 329.182 509.962ZM690.96 496.016C690.96 499.246 694.776 518.256 698.006 531.467C699.841 538.954 704.171 553.487 707.621 563.762C712.759 579.029 715.401 585.561 722.08 599.36C733.017 621.747 754.304 666.851 773.167 700.174C775.736 704.725 777.865 708.908 777.865 709.349C777.865 710.376 774.927 730.155 773.899 733.678C773.385 735.293 773.312 734.559 773.606 731.109C775.367 707.769 773.561 709.765 772.46 707.475C771.726 706.448 764.9 695.291 764.9 695.291C764.9 695.291 755.432 679.731 751.468 673.272C734.807 645.968 708.135 595.47 703.144 584.974C700.942 580.497 694.556 552.386 692.868 539.908C690.886 525.228 689.051 491.465 690.372 493.521C690.666 494.034 690.96 495.135 690.96 496.016ZM446.765 659.693L474.069 688.539H510.034H545.999L566.624 666.666C578 654.702 591.212 640.683 595.983 635.545C604.35 626.664 606.479 624.829 605.525 627.325C605.304 627.985 605.084 650.885 605.084 678.263V728.027L583.872 747.991C572.202 759.001 562.293 768.762 561.853 769.717C561.046 771.478 555.761 790.635 550.77 809.792L547.981 820.655L551.21 818.012C552.972 816.544 554.44 815.076 554.44 814.783C554.44 814.269 591.873 777.423 625.709 744.615L637.159 733.531L635.544 721.127C634.59 714.301 633.636 706.961 633.416 704.833L632.902 701.016L636.278 703.365C638.113 704.613 639.581 706.081 639.581 706.594C639.581 707.622 647.875 736.908 653.967 757.533C656.169 765.019 658.151 771.698 658.371 772.359C658.665 773.24 653.967 777.203 640.168 787.699C629.966 795.479 596.864 820.875 566.55 844.142C536.31 867.409 511.135 886.639 510.695 886.933C509.814 887.447 492.639 874.602 438.324 833.059C417.553 817.132 361.77 775.001 360.082 773.974C359.789 773.827 365.807 752.835 373.514 727.072C375.716 719.806 377.991 712.026 378.652 709.824C379.606 706.374 380.267 705.494 383.129 703.659C384.964 702.558 386.505 701.677 386.652 701.824C386.726 701.97 385.918 708.723 384.817 716.797C383.643 724.871 382.762 732.064 382.909 732.724C382.982 733.385 389.001 739.624 396.267 746.596C403.534 753.569 423.571 773.093 440.893 790.048C458.142 807.003 472.087 820.435 471.94 819.847C471.72 819.26 469.445 811.04 466.803 801.571C464.16 792.103 461.004 781.02 459.83 776.983L457.628 769.643L450.435 762.67C446.471 758.78 436.71 749.312 428.783 741.605L414.25 727.513V676.722V625.857L416.892 628.426C418.287 629.747 431.792 643.913 446.765 659.693Z" fill="black"/>
<path d="M409.038 380.194C401.698 383.351 396.193 386.433 388.927 391.204L383.789 394.58L391.496 395.094C417.552 397.003 416.231 396.782 425.259 400.452C435.535 404.636 453.297 412.71 452.93 413.003C452.783 413.15 450.214 412.71 447.205 412.049C438.544 410.141 422.323 410.434 408.744 412.856C399.863 414.398 397.441 415.132 396.047 416.453C395.019 417.554 394.579 418.581 394.872 419.389C396.047 422.472 419.827 437.371 430.03 441.482C436.636 444.124 441.627 444.564 446.985 443.023C456.82 440.16 463.279 435.463 466.582 428.71C467.83 426.068 468.931 423.793 469.004 423.646C469.151 423.499 472.38 425.628 476.197 428.343L483.096 433.261L483.61 437.004C487.06 463.207 492.051 495.576 492.858 496.97C493.739 498.585 493.886 493.521 494.106 457.703L494.326 416.6L490.069 408.159C485.225 398.691 484.344 397.81 475.023 394.213C463.352 389.81 420.341 377.258 416.965 377.405C416.084 377.405 412.488 378.653 409.038 380.194Z" fill="black"/>
<path d="M600.312 377.698C599.945 377.845 591.138 380.341 580.862 383.203C570.586 386.139 555.687 390.616 547.76 393.185L533.374 397.883L531.025 405.81C529.777 410.214 528.236 416.746 527.575 420.343C526.327 427.095 526.548 435.609 527.869 436.93C528.75 437.811 534.475 434.875 544.53 428.343C548.053 426.068 551.136 424.453 551.429 424.82C551.723 425.113 552.604 426.875 553.338 428.71C555.76 434.508 557.742 436.49 564.714 440.013C572.715 444.05 577.192 444.711 583.798 443.022C591.798 440.967 613.377 429.077 622.552 421.59L625.635 419.021L624.24 417.04C622.992 415.278 621.818 414.838 614.478 413.443C604.423 411.535 595.101 410.36 589.67 410.36C586.147 410.36 575.284 411.755 569.852 412.929C567.137 413.517 582.624 405.883 593.853 401.112C604.423 396.635 604.496 396.635 627.837 395.094L636.277 394.58L630.479 390.69C618.955 383.056 603.542 376.377 600.312 377.698Z" fill="black"/>
<path d="M480.602 510.401C478.693 512.09 477.886 513.558 477.592 515.76C477.299 518.328 477.519 519.062 479.501 521.338C482.437 524.714 496.456 534.476 503.575 538.219C507.685 540.348 509.667 541.008 511.062 540.641C513.631 539.981 525.668 532.861 532.641 527.944C541.889 521.338 543.21 517.227 537.999 511.209L535.503 508.346L522.952 514.512C508.346 521.631 511.722 521.778 494.841 513.337C488.896 510.401 483.831 507.979 483.611 507.979C483.391 507.979 482.07 509.08 480.602 510.401Z" fill="black"/>
<path d="M490.29 553.56C479.353 557.304 457.114 568.093 455.719 570.369C455.426 570.882 474.289 571.103 510.18 571.103H565.082L563.247 569.561C560.458 567.359 540.347 557.597 532.273 554.661L525.227 552.019L517.667 554.294C513.557 555.542 509.446 556.35 508.639 556.129C507.758 555.909 504.235 554.882 500.785 553.927L494.473 552.166L490.29 553.56Z" fill="black"/>
<path d="M490.804 589.306C483.831 589.453 482.51 589.673 482.51 590.627C482.51 592.095 486.473 600.242 488.308 602.664L489.703 604.426H509.961C526.622 604.426 530.439 604.206 531.319 603.325C533.081 601.563 538.366 590.7 537.778 590.113C537.118 589.526 504.382 588.939 490.804 589.306Z" fill="black"/>
<path d="M234.425 786.672C231.416 788.14 215.195 796.141 198.46 804.361L168 819.408L172.771 820.802C209.763 831.518 331.017 877.832 406.103 909.907C418.8 915.339 429.296 919.669 429.443 919.449C429.883 919.082 402.359 894.787 390.028 884.732C364.706 864.034 332.411 840.4 306.575 823.738C284.703 809.646 241.985 783.883 240.59 784.03C240.223 784.03 237.434 785.278 234.425 786.672Z" fill="black"/>
<path d="M748.21 802.525C716.575 822.269 706.96 828.582 689.271 841.133C663.802 859.189 643.912 874.088 628.571 886.639C619.323 894.273 596.276 914.751 593.34 917.98C591.285 920.256 591.138 920.256 601.047 915.852C624.755 905.209 684.354 881.061 730.594 863.299C734.851 861.684 747.403 856.84 758.486 852.583C792.909 839.298 841.205 822.123 849.352 820.361C850.6 820.067 851.701 819.554 851.701 819.333C851.627 818.526 780.065 783.956 778.45 783.956C778.156 783.956 764.578 792.323 748.21 802.525Z" fill="black"/>
</svg>
