<svg width="1024" height="1024" viewBox="0 0 1024 1024" fill="none" xmlns="http://www.w3.org/2000/svg">
<path d="M400.41 166.594C370.186 185.53 343.967 204.101 341.418 207.379C331.222 222.673 318.477 282.757 318.477 316.623C318.477 335.194 317.02 350.489 315.2 350.489C313.379 350.489 302.455 344.662 290.802 337.743C279.149 330.825 268.589 324.998 267.132 324.998C262.398 324.998 260.942 345.391 264.219 365.055C268.953 390.909 295.536 475.755 304.275 493.234C314.471 512.898 332.315 532.198 347.245 539.117C355.62 543.122 361.446 548.949 363.631 556.232C365.452 562.058 372.735 581.722 379.654 599.565L392.399 632.338L378.561 659.285C362.903 689.874 372.735 682.227 263.855 747.045C231.082 766.709 203.407 784.552 203.042 786.373C202.314 788.558 211.054 793.292 222.706 797.661C451.755 879.23 496.545 894.524 499.458 891.611C503.828 887.241 440.102 848.642 357.077 805.308C321.754 787.101 293.715 770.714 294.807 769.258C296.992 765.98 353.799 732.843 357.441 732.843C359.262 732.843 387.301 760.154 420.438 793.292C453.576 826.429 488.17 859.93 497.637 867.942L515.116 882.872L591.223 807.493C633.1 765.98 669.879 732.843 672.428 733.571C682.26 735.756 733.605 767.437 733.241 771.079C733.241 772.899 702.652 789.65 665.145 808.222C600.691 839.538 526.405 883.964 530.775 887.97C534.78 891.975 821 796.569 821 791.107C821 789.286 705.93 723.011 676.07 707.717C671.336 705.168 660.775 688.781 649.487 666.932C633.464 634.159 631.644 629.425 636.377 623.963C646.209 613.039 656.406 589.005 661.139 566.428C665.145 546.4 666.966 543.487 679.711 536.204C703.381 522.73 720.86 493.963 740.159 434.242C751.812 399.284 762.737 357.043 762.737 346.483C762.737 343.57 760.552 338.108 757.638 334.102C753.269 327.912 751.812 327.912 731.784 338.836C700.467 355.951 699.739 355.587 702.652 322.085C705.565 290.04 701.56 264.186 687.358 225.95L678.254 201.552L624.725 166.594L571.559 132H513.296H454.668L400.41 166.594ZM456.125 273.654C469.962 277.295 488.17 283.85 496.909 287.855L512.932 295.138L529.682 286.763C538.786 282.393 558.45 275.838 573.744 272.197L601.419 265.642L629.095 284.942L656.406 303.878L658.955 371.245C660.411 408.024 660.775 445.531 659.683 454.635C658.955 464.103 650.943 484.859 641.111 503.43C625.817 532.926 623.268 545.307 635.285 530.741C644.025 520.181 645.117 525.643 640.019 553.319C637.106 570.433 631.279 586.82 626.181 594.103C603.24 627.24 571.195 664.383 562.82 668.753C549.346 674.944 466.685 673.851 458.674 667.297C455.396 664.748 439.738 645.084 423.351 624.327C394.584 587.184 385.844 569.341 379.29 533.29L376.741 521.274L386.573 528.921C391.671 532.926 396.769 535.84 397.497 534.747C398.225 534.019 394.22 525.643 388.393 515.811C363.631 473.57 361.811 460.825 367.273 363.234L370.55 304.606L396.405 285.67C410.606 275.474 424.444 266.735 426.993 266.735C429.542 266.735 442.651 269.648 456.125 273.654ZM290.438 354.494C294.807 357.043 307.188 366.147 317.749 374.886C334.864 389.817 336.684 392.366 336.684 406.203V421.497L330.13 410.573C326.124 404.382 317.02 394.915 309.373 389.088C297.721 379.985 295.9 379.62 297.721 385.447C302.455 401.105 323.211 447.716 333.043 465.559C339.598 476.484 343.967 489.229 343.967 496.512L343.603 508.893L330.858 494.327C323.575 486.316 314.471 473.206 310.466 465.195C300.27 445.531 275.508 350.489 280.606 350.489C281.698 350.489 286.068 352.309 290.438 354.494ZM743.801 369.424C729.963 432.422 697.554 507.072 683.717 507.072C675.341 507.072 680.439 485.951 695.369 460.461C709.571 436.427 725.229 392.001 721.224 387.996C719.767 386.175 711.028 393.094 702.288 402.562L686.266 420.405V405.839C686.266 392.001 687.358 390.909 713.941 372.702C729.235 362.505 742.708 354.13 744.529 354.13C745.986 354.13 745.986 361.049 743.801 369.424ZM434.64 680.042L457.217 707.353H512.203H566.825L580.299 693.515C587.582 686.232 598.506 673.487 604.697 665.84L615.985 651.638L625.453 682.591C630.915 699.706 635.285 715.728 635.285 717.549C635.285 720.826 593.044 758.333 524.948 816.233L514.752 824.608L497.637 811.499C454.304 777.633 387.665 720.462 387.665 717.185C387.665 709.902 407.329 652.731 409.878 652.731C410.97 652.731 422.259 665.112 434.64 680.042Z" fill="black"/>
<path d="M611.615 374.885C607.609 375.977 590.494 380.711 573.744 385.445C556.993 390.543 541.334 393.82 538.421 392.728C534.416 391.271 533.323 395.641 533.323 414.213C533.323 427.322 534.416 437.882 535.508 437.882C536.601 437.882 542.063 435.333 547.525 432.056C557.357 426.23 557.721 426.594 568.646 437.518C574.836 443.709 583.211 448.807 586.853 448.807C598.141 448.807 647.665 423.316 644.024 419.675C642.203 417.854 629.094 414.941 615.256 413.12L589.766 410.207L602.147 403.652C609.066 400.011 624.36 396.005 636.013 394.913C655.677 393.456 656.769 392.728 649.85 387.994C638.198 379.983 619.626 373.428 611.615 374.885Z" fill="black"/>
<path d="M386.937 383.625C379.29 387.631 373.1 392.001 373.1 393.457C373.1 394.914 380.747 396.37 390.579 396.37C400.046 396.734 414.977 400.376 424.08 404.382L440.467 412.029H424.08C398.954 412.757 380.018 416.763 381.475 421.132C383.66 427.687 417.89 445.894 432.091 447.715C443.744 449.536 447.386 448.079 457.218 437.883L469.234 426.23L477.61 435.698C484.529 443.709 485.985 449.9 486.349 469.928C486.349 483.402 487.806 497.603 489.263 501.609C493.268 511.805 496.91 477.939 496.91 427.687C496.91 387.995 496.545 386.903 489.991 391.272C484.164 394.914 476.517 393.821 448.842 385.81C408.422 374.157 404.78 374.157 386.937 383.625Z" fill="black"/>
<path d="M475.788 511.442C468.505 518.725 470.69 524.187 487.441 537.66C507.105 554.047 519.85 554.411 539.878 540.209C559.542 525.644 560.634 523.459 550.802 513.627C542.427 505.251 542.427 505.251 541.334 512.898C540.242 520.91 527.133 528.921 515.48 528.921C503.827 528.921 485.984 520.91 485.984 516.176C485.984 508.893 480.522 506.708 475.788 511.442Z" fill="black"/>
<path d="M467.048 572.982C457.581 577.352 450.662 582.085 451.754 583.906C454.303 587.912 572.287 588.276 574.836 584.27C579.206 576.987 548.981 567.884 516.936 566.427C489.261 565.335 481.614 566.427 467.048 572.982Z" fill="black"/>
<path d="M483.072 611.583C484.165 617.045 488.899 618.502 511.111 619.23C536.966 620.323 543.885 617.774 544.249 607.942C544.249 606.485 530.047 605.393 512.932 605.393C485.257 605.393 481.98 606.121 483.072 611.583Z" fill="black"/>
</svg>
